# MagicaVoxel @ Ephtracy

# group
o 

# material
mtllib treeDead.mtl
usemtl palette

# normals
vn -1 0 0
vn 1 0 0
vn 0 0 1
vn 0 0 -1
vn 0 -1 0
vn 0 1 0

# texcoords
vt 0.373047 0.5
vt 0.970703 0.5

# verts
v -0.9 2.6 0.5
v -0.9 2.6 0.2
v -0.9 3.3 0.5
v -0.9 3.3 0.2
v -0.8 1.4 0.8
v -0.8 1.4 0.5
v -0.8 1.7 0.5
v -0.8 1.7 0.3
v -0.8 1.9 0.8
v -0.8 1.9 0.7
v -0.8 2.6 0.5
v -0.8 2.6 0.3
v -0.8 2.7 0.7
v -0.8 2.7 0.6
v -0.8 2.8 0.6
v -0.8 2.8 0.5
v -0.7 2.3 0.9
v -0.7 2.3 0.7
v -0.7 2.4 1.3
v -0.7 2.4 0.9
v -0.7 2.6 1.1
v -0.7 2.6 0.7
v -0.7 3.1 1.3
v -0.7 3.1 1.1
v -0.5 0 0.8
v -0.5 0 0.3
v -0.5 0.3 0.8
v -0.5 0.3 0.7
v -0.5 0.4 0.7
v -0.5 0.4 0.3
v -0.4 2.4 1.4
v -0.4 2.4 1.1
v -0.4 2.5 1.1
v -0.4 2.5 0.9
v -0.4 3.1 1.4
v -0.4 3.1 0.9
v -0.3 0 0.9
v -0.3 0 0.8
v -0.3 0 0.3
v -0.3 0 -0.1
v -0.3 0.3 0.8
v -0.3 0.3 0.7
v -0.3 0.4 0.7
v -0.3 0.4 0.3
v -0.3 0.4 0.2
v -0.3 0.4 -0.1
v -0.3 0.8 0.9
v -0.3 0.8 0.8
v -0.3 0.8 0.3
v -0.3 0.8 0.2
v -0.3 1.4 0.8
v -0.3 1.4 0.5
v -0.3 1.7 1.1
v -0.3 1.7 0.8
v -0.3 1.7 0.5
v -0.3 1.7 0.3
v -0.3 1.9 0.8
v -0.3 1.9 0.7
v -0.3 2.1 0.7
v -0.3 2.4 1.1
v -0.3 2.5 1.1
v -0.3 2.5 0.9
v -0.3 2.5 0.1
v -0.3 2.5 -0.3
v -0.3 2.7 0.9
v -0.3 2.7 0.7
v -0.3 2.7 0.2
v -0.3 2.7 0.1
v -0.3 3.1 1.3
v -0.3 3.1 1
v -0.3 3.1 0.2
v -0.3 3.1 -0.3
v -0.3 3.2 1.3
v -0.3 3.2 1
v -0.2 1.8 0.3
v -0.2 1.8 -0.2
v -0.2 2.1 0.3
v -0.2 2.2 0.3
v -0.2 2.2 0.1
v -0.2 2.5 0.1
v -0.2 2.5 -0.2
v 0 0 1.1
v 0 0 0.9
v 0 0.4 1.1
v 0 0.4 0.9
v 0.1 0.4 0.2
v 0.1 0.4 0.1
v 0.1 0.8 0.2
v 0.1 0.8 0.1
v 0.7 2.1 0.6
v 0.7 2.1 0.3
v 0.7 2.4 0.3
v 0.7 2.4 0
v 0.7 2.7 0.6
v 0.7 2.7 0.3
v 0.7 3.5 0.3
v 0.7 3.5 0
v 1.5 3.1 0.2
v 1.5 3.1 0
v 1.5 3.4 0.2
v 1.5 3.4 0
v -0.6 2.6 0.3
v -0.6 2.6 0.2
v -0.6 2.8 0.5
v -0.6 2.8 0.3
v -0.6 3.3 0.5
v -0.6 3.3 0.2
v -0.5 2.3 0.9
v -0.5 2.3 0.7
v -0.5 2.4 1.3
v -0.5 2.4 0.9
v -0.5 2.6 1.1
v -0.5 2.6 0.7
v -0.5 2.7 0.6
v -0.5 2.7 0.3
v -0.5 2.8 0.6
v -0.5 2.8 0.3
v -0.5 3.1 1.3
v -0.5 3.1 1.1
v -0.4 2.1 0.7
v -0.4 2.1 0.3
v -0.4 2.7 0.7
v -0.4 2.7 0.3
v 0.1 0 0.1
v 0.1 0 -0.1
v 0.1 0.4 0.1
v 0.1 0.4 -0.1
v 0.1 2.2 0.1
v 0.1 2.2 -0.2
v 0.1 2.5 0.1
v 0.1 2.5 -0.2
v 0.2 1.7 1.1
v 0.2 1.7 0.8
v 0.2 2.1 0.8
v 0.2 2.1 0.7
v 0.2 2.4 1.1
v 0.2 2.4 1
v 0.2 2.5 0.1
v 0.2 2.5 -0.3
v 0.2 2.7 1
v 0.2 2.7 0.9
v 0.2 2.7 0.7
v 0.2 2.7 0.2
v 0.2 2.7 0.1
v 0.2 3.1 1.3
v 0.2 3.1 1
v 0.2 3.1 0.2
v 0.2 3.1 -0.3
v 0.2 3.2 1.3
v 0.2 3.2 1
v 0.3 2.4 1.4
v 0.3 2.4 1
v 0.3 2.7 1
v 0.3 2.7 0.9
v 0.3 3.1 1.4
v 0.3 3.1 0.9
v 0.4 0 1.1
v 0.4 0 0.8
v 0.4 0 0.4
v 0.4 0 0.1
v 0.4 0.3 0.8
v 0.4 0.3 0.4
v 0.4 0.4 1.1
v 0.4 0.4 0.9
v 0.4 0.8 0.9
v 0.4 0.8 0.8
v 0.4 0.8 0.3
v 0.4 0.8 0.1
v 0.4 1.7 0.7
v 0.4 1.7 0.3
v 0.4 1.8 0.3
v 0.4 1.8 -0.2
v 0.4 2.1 0.8
v 0.4 2.1 0.7
v 0.4 2.1 0.3
v 0.4 2.2 0.3
v 0.4 2.2 -0.2
v 0.6 0 0.8
v 0.6 0 0.4
v 0.6 0.3 0.8
v 0.6 0.3 0.4
v 1.1 1.7 0.7
v 1.1 1.7 0.3
v 1.1 2.1 0.7
v 1.1 2.1 0.6
v 1.1 2.4 0.3
v 1.1 2.4 0
v 1.1 2.7 0.6
v 1.1 2.7 0.3
v 1.1 2.9 0.2
v 1.1 2.9 0
v 1.1 3.1 0.2
v 1.1 3.1 0
v 1.1 3.5 0.3
v 1.1 3.5 0
v 1.7 2.9 0.2
v 1.7 2.9 0
v 1.7 3.4 0.2
v 1.7 3.4 0
v -0.4 2.4 1.4
v -0.4 3.1 1.4
v 0.3 2.4 1.4
v 0.3 3.1 1.4
v -0.7 2.4 1.3
v -0.7 3.1 1.3
v -0.5 2.4 1.3
v -0.5 3.1 1.3
v -0.3 3.1 1.3
v -0.3 3.2 1.3
v 0.2 3.1 1.3
v 0.2 3.2 1.3
v -0.3 1.7 1.1
v -0.3 2.4 1.1
v 0 0 1.1
v 0 0.4 1.1
v 0.2 1.7 1.1
v 0.2 2.4 1.1
v 0.4 0 1.1
v 0.4 0.4 1.1
v -0.7 2.3 0.9
v -0.7 2.4 0.9
v -0.5 2.3 0.9
v -0.5 2.4 0.9
v -0.3 0 0.9
v -0.3 0.8 0.9
v 0 0 0.9
v 0 0.4 0.9
v 0.4 0.4 0.9
v 0.4 0.8 0.9
v -0.8 1.4 0.8
v -0.8 1.9 0.8
v -0.5 0 0.8
v -0.5 0.3 0.8
v -0.3 0 0.8
v -0.3 0.3 0.8
v -0.3 0.8 0.8
v -0.3 1.4 0.8
v -0.3 1.7 0.8
v -0.3 1.9 0.8
v 0.2 1.7 0.8
v 0.2 2.1 0.8
v 0.4 0 0.8
v 0.4 0.3 0.8
v 0.4 0.8 0.8
v 0.4 2.1 0.8
v 0.6 0 0.8
v 0.6 0.3 0.8
v -0.8 1.9 0.7
v -0.8 2.7 0.7
v -0.7 2.3 0.7
v -0.7 2.6 0.7
v -0.5 0.3 0.7
v -0.5 0.4 0.7
v -0.5 2.3 0.7
v -0.5 2.6 0.7
v -0.4 2.1 0.7
v -0.4 2.7 0.7
v -0.3 0.3 0.7
v -0.3 0.4 0.7
v -0.3 1.9 0.7
v -0.3 2.1 0.7
v 0.4 1.7 0.7
v 0.4 2.1 0.7
v 1.1 1.7 0.7
v 1.1 2.1 0.7
v -0.8 2.7 0.6
v -0.8 2.8 0.6
v -0.5 2.7 0.6
v -0.5 2.8 0.6
v 0.7 2.1 0.6
v 0.7 2.7 0.6
v 1.1 2.1 0.6
v 1.1 2.7 0.6
v -0.9 2.6 0.5
v -0.9 3.3 0.5
v -0.8 2.6 0.5
v -0.8 2.8 0.5
v -0.6 2.8 0.5
v -0.6 3.3 0.5
v -0.2 2.1 0.3
v -0.2 2.2 0.3
v 0.4 2.1 0.3
v 0.4 2.2 0.3
v 0.7 2.7 0.3
v 0.7 3.5 0.3
v 1.1 2.7 0.3
v 1.1 3.5 0.3
v -0.3 2.7 0.2
v -0.3 3.1 0.2
v 0.2 2.7 0.2
v 0.2 3.1 0.2
v 1.1 2.9 0.2
v 1.1 3.1 0.2
v 1.5 3.1 0.2
v 1.5 3.4 0.2
v 1.7 2.9 0.2
v 1.7 3.4 0.2
v -0.3 2.5 0.1
v -0.3 2.7 0.1
v -0.2 2.2 0.1
v -0.2 2.5 0.1
v -0.2 2.7 0.1
v 0.1 2.2 0.1
v 0.1 2.5 0.1
v 0.1 2.7 0.1
v 0.2 2.5 0.1
v 0.2 2.7 0.1
v -0.7 2.6 1.1
v -0.7 3.1 1.1
v -0.5 2.6 1.1
v -0.5 3.1 1.1
v -0.4 2.4 1.1
v -0.4 2.5 1.1
v -0.3 2.4 1.1
v -0.3 2.5 1.1
v -0.3 3.1 1
v -0.3 3.2 1
v 0.2 2.4 1
v 0.2 2.7 1
v 0.2 3.1 1
v 0.2 3.2 1
v 0.3 2.4 1
v 0.3 2.7 1
v -0.4 2.5 0.9
v -0.4 3.1 0.9
v -0.3 2.5 0.9
v -0.3 2.7 0.9
v 0.2 2.7 0.9
v 0.3 2.7 0.9
v 0.3 3.1 0.9
v -0.3 2.1 0.7
v -0.3 2.7 0.7
v 0.2 2.1 0.7
v 0.2 2.7 0.7
v -0.8 1.4 0.5
v -0.8 1.7 0.5
v -0.3 1.4 0.5
v -0.3 1.7 0.5
v 0.4 0 0.4
v 0.4 0.3 0.4
v 0.6 0 0.4
v 0.6 0.3 0.4
v -0.8 1.7 0.3
v -0.8 2.6 0.3
v -0.6 2.6 0.3
v -0.6 2.8 0.3
v -0.5 0 0.3
v -0.5 0.4 0.3
v -0.5 2.7 0.3
v -0.5 2.8 0.3
v -0.4 2.1 0.3
v -0.4 2.7 0.3
v -0.3 0 0.3
v -0.3 0.4 0.3
v -0.3 0.8 0.3
v -0.3 1.7 0.3
v -0.2 1.8 0.3
v -0.2 2.1 0.3
v 0.4 0.8 0.3
v 0.4 1.7 0.3
v 0.4 1.8 0.3
v 0.4 2.1 0.3
v 0.7 2.1 0.3
v 0.7 2.4 0.3
v 1.1 1.7 0.3
v 1.1 2.4 0.3
v -0.9 2.6 0.2
v -0.9 3.3 0.2
v -0.6 2.6 0.2
v -0.6 3.3 0.2
v -0.3 0.4 0.2
v -0.3 0.8 0.2
v 0.1 0.4 0.2
v 0.1 0.8 0.2
v 0.1 0 0.1
v 0.1 0.4 0.1
v 0.1 0.8 0.1
v 0.4 0 0.1
v 0.4 0.8 0.1
v 0.7 2.4 0
v 0.7 3.5 0
v 1.1 2.4 0
v 1.1 2.9 0
v 1.1 3.1 0
v 1.1 3.5 0
v 1.5 3.1 0
v 1.5 3.4 0
v 1.7 2.9 0
v 1.7 3.4 0
v -0.3 0 -0.1
v -0.3 0.4 -0.1
v 0.1 0 -0.1
v 0.1 0.4 -0.1
v -0.2 1.8 -0.2
v -0.2 2.5 -0.2
v 0.1 2.2 -0.2
v 0.1 2.5 -0.2
v 0.4 1.8 -0.2
v 0.4 2.2 -0.2
v -0.3 2.5 -0.3
v -0.3 3.1 -0.3
v 0.2 2.5 -0.3
v 0.2 3.1 -0.3
v 0 0 1.1
v 0.4 0 1.1
v -0.3 0 0.9
v 0 0 0.9
v -0.5 0 0.8
v -0.3 0 0.8
v 0.4 0 0.8
v 0.6 0 0.8
v 0.4 0 0.4
v 0.6 0 0.4
v -0.5 0 0.3
v -0.3 0 0.3
v 0.1 0 0.1
v 0.4 0 0.1
v -0.3 0 -0.1
v 0.1 0 -0.1
v -0.8 1.4 0.8
v -0.3 1.4 0.8
v -0.8 1.4 0.5
v -0.3 1.4 0.5
v -0.3 1.7 1.1
v 0.2 1.7 1.1
v -0.3 1.7 0.8
v 0.2 1.7 0.8
v 0.4 1.7 0.7
v 1.1 1.7 0.7
v -0.8 1.7 0.5
v -0.3 1.7 0.5
v -0.8 1.7 0.3
v -0.3 1.7 0.3
v 0.4 1.7 0.3
v 1.1 1.7 0.3
v -0.2 1.8 0.3
v 0.4 1.8 0.3
v -0.2 1.8 -0.2
v 0.4 1.8 -0.2
v -0.7 2.3 0.9
v -0.5 2.3 0.9
v -0.7 2.3 0.7
v -0.5 2.3 0.7
v -0.4 2.4 1.4
v 0.3 2.4 1.4
v -0.7 2.4 1.3
v -0.5 2.4 1.3
v -0.4 2.4 1.1
v -0.3 2.4 1.1
v 0.2 2.4 1.1
v 0.2 2.4 1
v 0.3 2.4 1
v -0.7 2.4 0.9
v -0.5 2.4 0.9
v 0.7 2.4 0.3
v 1.1 2.4 0.3
v 0.7 2.4 0
v 1.1 2.4 0
v -0.4 2.5 1.1
v -0.3 2.5 1.1
v -0.4 2.5 0.9
v -0.3 2.5 0.9
v -0.3 2.5 0.1
v -0.2 2.5 0.1
v 0.1 2.5 0.1
v 0.2 2.5 0.1
v -0.2 2.5 -0.2
v 0.1 2.5 -0.2
v -0.3 2.5 -0.3
v 0.2 2.5 -0.3
v -0.9 2.6 0.5
v -0.8 2.6 0.5
v -0.8 2.6 0.3
v -0.6 2.6 0.3
v -0.9 2.6 0.2
v -0.6 2.6 0.2
v 0.2 2.7 1
v 0.3 2.7 1
v 0.2 2.7 0.9
v 0.3 2.7 0.9
v -0.3 2.7 0.2
v 0.2 2.7 0.2
v -0.3 2.7 0.1
v -0.2 2.7 0.1
v 0.1 2.7 0.1
v 0.2 2.7 0.1
v 1.1 2.9 0.2
v 1.7 2.9 0.2
v 1.1 2.9 0
v 1.7 2.9 0
v -0.5 0.3 0.8
v -0.3 0.3 0.8
v 0.4 0.3 0.8
v 0.6 0.3 0.8
v -0.5 0.3 0.7
v -0.3 0.3 0.7
v 0.4 0.3 0.4
v 0.6 0.3 0.4
v 0 0.4 1.1
v 0.4 0.4 1.1
v 0 0.4 0.9
v 0.4 0.4 0.9
v -0.5 0.4 0.7
v -0.3 0.4 0.7
v -0.5 0.4 0.3
v -0.3 0.4 0.3
v -0.3 0.4 0.2
v 0.1 0.4 0.2
v 0.1 0.4 0.1
v -0.3 0.4 -0.1
v 0.1 0.4 -0.1
v -0.3 0.8 0.9
v 0.4 0.8 0.9
v -0.3 0.8 0.8
v 0.4 0.8 0.8
v -0.3 0.8 0.3
v 0.4 0.8 0.3
v -0.3 0.8 0.2
v 0.1 0.8 0.2
v 0.1 0.8 0.1
v 0.4 0.8 0.1
v -0.8 1.9 0.8
v -0.3 1.9 0.8
v -0.8 1.9 0.7
v -0.3 1.9 0.7
v 0.2 2.1 0.8
v 0.4 2.1 0.8
v -0.4 2.1 0.7
v -0.3 2.1 0.7
v 0.2 2.1 0.7
v 0.4 2.1 0.7
v 1.1 2.1 0.7
v 0.7 2.1 0.6
v 1.1 2.1 0.6
v -0.4 2.1 0.3
v -0.2 2.1 0.3
v 0.4 2.1 0.3
v 0.7 2.1 0.3
v -0.2 2.2 0.3
v 0.4 2.2 0.3
v -0.2 2.2 0.1
v 0.1 2.2 0.1
v 0.1 2.2 -0.2
v 0.4 2.2 -0.2
v -0.7 2.6 1.1
v -0.5 2.6 1.1
v -0.7 2.6 0.7
v -0.5 2.6 0.7
v -0.3 2.7 0.9
v 0.2 2.7 0.9
v -0.8 2.7 0.7
v -0.4 2.7 0.7
v -0.3 2.7 0.7
v 0.2 2.7 0.7
v -0.8 2.7 0.6
v -0.5 2.7 0.6
v 0.7 2.7 0.6
v 1.1 2.7 0.6
v -0.5 2.7 0.3
v -0.4 2.7 0.3
v 0.7 2.7 0.3
v 1.1 2.7 0.3
v -0.8 2.8 0.6
v -0.5 2.8 0.6
v -0.8 2.8 0.5
v -0.6 2.8 0.5
v -0.6 2.8 0.3
v -0.5 2.8 0.3
v -0.4 3.1 1.4
v 0.3 3.1 1.4
v -0.7 3.1 1.3
v -0.5 3.1 1.3
v -0.3 3.1 1.3
v 0.2 3.1 1.3
v -0.7 3.1 1.1
v -0.5 3.1 1.1
v -0.3 3.1 1
v 0.2 3.1 1
v -0.4 3.1 0.9
v 0.3 3.1 0.9
v -0.3 3.1 0.2
v 0.2 3.1 0.2
v 1.1 3.1 0.2
v 1.5 3.1 0.2
v -0.2 3.1 0.1
v 0.1 3.1 0.1
v 1.1 3.1 0
v 1.5 3.1 0
v -0.2 3.1 -0.2
v 0.1 3.1 -0.2
v -0.3 3.1 -0.3
v 0.2 3.1 -0.3
v -0.3 3.2 1.3
v 0.2 3.2 1.3
v -0.3 3.2 1
v 0.2 3.2 1
v -0.9 3.3 0.5
v -0.6 3.3 0.5
v -0.9 3.3 0.2
v -0.6 3.3 0.2
v 1.5 3.4 0.2
v 1.7 3.4 0.2
v 1.5 3.4 0
v 1.7 3.4 0
v 0.7 3.5 0.3
v 1.1 3.5 0.3
v 0.7 3.5 0
v 1.1 3.5 0

# faces
f 3/2/1 2/2/1 1/2/1
f 4/2/1 2/2/1 3/2/1
f 7/2/1 6/2/1 5/2/1
f 9/2/1 7/2/1 5/2/1
f 9/2/1 8/2/1 7/2/1
f 10/2/1 8/2/1 9/2/1
f 11/2/1 8/2/1 10/2/1
f 12/2/1 8/2/1 11/2/1
f 13/2/1 11/2/1 10/2/1
f 14/2/1 11/2/1 13/2/1
f 15/2/1 11/2/1 14/2/1
f 16/2/1 11/2/1 15/2/1
f 20/2/1 18/2/1 17/2/1
f 21/2/1 20/2/1 19/2/1
f 22/2/1 18/2/1 20/2/1
f 22/2/1 20/2/1 21/2/1
f 23/2/1 21/2/1 19/2/1
f 24/2/1 21/2/1 23/2/1
f 27/2/1 26/2/1 25/2/1
f 28/2/1 26/2/1 27/2/1
f 29/2/1 26/2/1 28/2/1
f 30/2/1 26/2/1 29/2/1
f 33/1/1 32/1/1 31/1/1
f 35/1/1 33/1/1 31/1/1
f 35/1/1 34/1/1 33/1/1
f 36/1/1 34/1/1 35/1/1
f 41/2/1 38/2/1 37/2/1
f 43/2/1 42/2/1 41/2/1
f 44/2/1 40/2/1 39/2/1
f 45/2/1 40/2/1 44/2/1
f 46/2/1 40/2/1 45/2/1
f 47/2/1 43/2/1 41/2/1
f 47/2/1 41/2/1 37/2/1
f 47/2/1 45/2/1 44/2/1
f 47/2/1 44/2/1 43/2/1
f 48/2/1 45/2/1 47/2/1
f 49/2/1 45/2/1 48/2/1
f 50/2/1 45/2/1 49/2/1
f 51/2/1 49/2/1 48/2/1
f 52/2/1 49/2/1 51/2/1
f 55/2/1 49/2/1 52/2/1
f 56/2/1 49/2/1 55/2/1
f 57/2/1 54/2/1 53/2/1
f 59/2/1 58/2/1 57/2/1
f 60/2/1 57/2/1 53/2/1
f 60/2/1 59/2/1 57/2/1
f 61/2/1 59/2/1 60/2/1
f 62/2/1 59/2/1 61/2/1
f 65/2/1 59/2/1 62/2/1
f 66/2/1 59/2/1 65/2/1
f 68/1/1 64/1/1 63/1/1
f 71/1/1 68/1/1 67/1/1
f 72/1/1 64/1/1 68/1/1
f 72/1/1 68/1/1 71/1/1
f 73/2/1 70/2/1 69/2/1
f 74/2/1 70/2/1 73/2/1
f 77/2/1 76/2/1 75/2/1
f 78/2/1 76/2/1 77/2/1
f 79/2/1 76/2/1 78/2/1
f 80/2/1 76/2/1 79/2/1
f 81/2/1 76/2/1 80/2/1
f 84/2/1 83/2/1 82/2/1
f 85/2/1 83/2/1 84/2/1
f 88/2/1 87/2/1 86/2/1
f 89/2/1 87/2/1 88/2/1
f 92/2/1 91/2/1 90/2/1
f 94/2/1 92/2/1 90/2/1
f 94/2/1 93/2/1 92/2/1
f 95/2/1 93/2/1 94/2/1
f 96/2/1 93/2/1 95/2/1
f 97/2/1 93/2/1 96/2/1
f 100/2/1 99/2/1 98/2/1
f 101/2/1 99/2/1 100/2/1
f 102/2/2 103/2/2 105/2/2
f 104/2/2 105/2/2 106/2/2
f 105/2/2 103/2/2 107/2/2
f 106/2/2 105/2/2 107/2/2
f 108/2/2 109/2/2 111/2/2
f 110/2/2 111/2/2 112/2/2
f 111/2/2 109/2/2 113/2/2
f 112/2/2 111/2/2 113/2/2
f 114/2/2 115/2/2 116/2/2
f 116/2/2 115/2/2 117/2/2
f 110/2/2 112/2/2 118/2/2
f 118/2/2 112/2/2 119/2/2
f 120/2/2 121/2/2 122/2/2
f 122/2/2 121/2/2 123/2/2
f 124/2/2 125/2/2 126/2/2
f 126/2/2 125/2/2 127/2/2
f 128/2/2 129/2/2 130/2/2
f 130/2/2 129/2/2 131/2/2
f 132/2/2 133/2/2 134/2/2
f 132/2/2 134/2/2 136/2/2
f 134/2/2 135/2/2 136/2/2
f 136/2/2 135/2/2 137/2/2
f 137/2/2 135/2/2 140/2/2
f 140/2/2 135/2/2 141/2/2
f 141/2/2 135/2/2 142/2/2
f 138/1/2 139/1/2 144/1/2
f 143/1/2 144/1/2 147/1/2
f 144/1/2 139/1/2 148/1/2
f 147/1/2 144/1/2 148/1/2
f 145/2/2 146/2/2 149/2/2
f 149/2/2 146/2/2 150/2/2
f 151/1/2 152/1/2 153/1/2
f 151/1/2 153/1/2 155/1/2
f 153/1/2 154/1/2 155/1/2
f 155/1/2 154/1/2 156/1/2
f 157/2/2 158/2/2 161/2/2
f 159/2/2 160/2/2 162/2/2
f 157/2/2 161/2/2 163/2/2
f 161/2/2 162/2/2 163/2/2
f 163/2/2 162/2/2 164/2/2
f 164/2/2 162/2/2 165/2/2
f 165/2/2 162/2/2 166/2/2
f 162/2/2 160/2/2 167/2/2
f 166/2/2 162/2/2 167/2/2
f 167/2/2 160/2/2 168/2/2
f 166/2/2 167/2/2 169/2/2
f 169/2/2 167/2/2 170/2/2
f 166/2/2 169/2/2 173/2/2
f 173/2/2 169/2/2 174/2/2
f 171/2/2 172/2/2 175/2/2
f 175/2/2 172/2/2 176/2/2
f 176/2/2 172/2/2 177/2/2
f 178/2/2 179/2/2 180/2/2
f 180/2/2 179/2/2 181/2/2
f 182/2/2 183/2/2 184/2/2
f 184/2/2 183/2/2 185/2/2
f 185/2/2 183/2/2 186/2/2
f 185/2/2 186/2/2 188/2/2
f 186/2/2 187/2/2 188/2/2
f 188/2/2 187/2/2 189/2/2
f 189/2/2 187/2/2 190/2/2
f 190/2/2 187/2/2 191/2/2
f 189/2/2 190/2/2 192/2/2
f 189/2/2 192/2/2 194/2/2
f 192/2/2 193/2/2 194/2/2
f 194/2/2 193/2/2 195/2/2
f 196/2/2 197/2/2 198/2/2
f 198/2/2 197/2/2 199/2/2
f 202/1/3 201/1/3 200/1/3
f 203/1/3 201/1/3 202/1/3
f 206/2/3 205/2/3 204/2/3
f 207/2/3 205/2/3 206/2/3
f 210/2/3 209/2/3 208/2/3
f 211/2/3 209/2/3 210/2/3
f 216/2/3 213/2/3 212/2/3
f 217/2/3 213/2/3 216/2/3
f 218/2/3 215/2/3 214/2/3
f 219/2/3 215/2/3 218/2/3
f 222/2/3 221/2/3 220/2/3
f 223/2/3 221/2/3 222/2/3
f 226/2/3 225/2/3 224/2/3
f 227/2/3 225/2/3 226/2/3
f 228/2/3 225/2/3 227/2/3
f 229/2/3 225/2/3 228/2/3
f 234/2/3 233/2/3 232/2/3
f 235/2/3 233/2/3 234/2/3
f 237/2/3 231/2/3 230/2/3
f 238/2/3 231/2/3 237/2/3
f 239/2/3 231/2/3 238/2/3
f 240/2/3 237/2/3 236/2/3
f 240/2/3 238/2/3 237/2/3
f 244/2/3 240/2/3 236/2/3
f 244/2/3 241/2/3 240/2/3
f 245/2/3 241/2/3 244/2/3
f 246/2/3 243/2/3 242/2/3
f 247/2/3 243/2/3 246/2/3
f 250/2/3 249/2/3 248/2/3
f 251/2/3 249/2/3 250/2/3
f 254/2/3 250/2/3 248/2/3
f 255/2/3 249/2/3 251/2/3
f 256/2/3 254/2/3 248/2/3
f 256/2/3 255/2/3 254/2/3
f 257/2/3 249/2/3 255/2/3
f 257/2/3 255/2/3 256/2/3
f 258/2/3 253/2/3 252/2/3
f 259/2/3 253/2/3 258/2/3
f 260/2/3 256/2/3 248/2/3
f 261/2/3 256/2/3 260/2/3
f 264/2/3 263/2/3 262/2/3
f 265/2/3 263/2/3 264/2/3
f 268/2/3 267/2/3 266/2/3
f 269/2/3 267/2/3 268/2/3
f 272/2/3 271/2/3 270/2/3
f 273/2/3 271/2/3 272/2/3
f 276/2/3 275/2/3 274/2/3
f 277/2/3 275/2/3 276/2/3
f 278/2/3 275/2/3 277/2/3
f 279/2/3 275/2/3 278/2/3
f 282/2/3 281/2/3 280/2/3
f 283/2/3 281/2/3 282/2/3
f 286/2/3 285/2/3 284/2/3
f 287/2/3 285/2/3 286/2/3
f 290/1/3 289/1/3 288/1/3
f 291/1/3 289/1/3 290/1/3
f 294/2/3 293/2/3 292/2/3
f 296/2/3 294/2/3 292/2/3
f 296/2/3 295/2/3 294/2/3
f 297/2/3 295/2/3 296/2/3
f 301/1/3 299/1/3 298/1/3
f 302/1/3 299/1/3 301/1/3
f 303/2/3 301/2/3 300/2/3
f 303/2/3 302/2/3 301/2/3
f 304/2/3 302/2/3 303/2/3
f 305/2/3 302/2/3 304/2/3
f 306/1/3 305/1/3 304/1/3
f 307/1/3 305/1/3 306/1/3
f 308/2/4 309/2/4 310/2/4
f 310/2/4 309/2/4 311/2/4
f 312/1/4 313/1/4 314/1/4
f 314/1/4 313/1/4 315/1/4
f 316/2/4 317/2/4 320/2/4
f 320/2/4 317/2/4 321/2/4
f 318/1/4 319/1/4 322/1/4
f 322/1/4 319/1/4 323/1/4
f 324/1/4 325/1/4 326/1/4
f 326/1/4 325/1/4 327/1/4
f 327/1/4 325/1/4 328/1/4
f 328/1/4 325/1/4 329/1/4
f 329/1/4 325/1/4 330/1/4
f 331/2/4 332/2/4 333/2/4
f 333/2/4 332/2/4 334/2/4
f 335/2/4 336/2/4 337/2/4
f 337/2/4 336/2/4 338/2/4
f 339/2/4 340/2/4 341/2/4
f 341/2/4 340/2/4 342/2/4
f 343/2/4 344/2/4 345/2/4
f 345/2/4 346/2/4 349/2/4
f 349/2/4 346/2/4 350/2/4
f 343/2/4 345/2/4 351/2/4
f 345/2/4 349/2/4 351/2/4
f 351/2/4 349/2/4 352/2/4
f 347/2/4 348/2/4 353/2/4
f 353/2/4 348/2/4 354/2/4
f 343/2/4 351/2/4 356/2/4
f 355/2/4 356/2/4 357/2/4
f 356/2/4 351/2/4 357/2/4
f 357/2/4 351/2/4 358/2/4
f 355/2/4 357/2/4 359/2/4
f 359/2/4 357/2/4 360/2/4
f 360/2/4 357/2/4 361/2/4
f 361/2/4 362/2/4 363/2/4
f 360/2/4 361/2/4 363/2/4
f 360/2/4 363/2/4 365/2/4
f 363/2/4 364/2/4 365/2/4
f 365/2/4 364/2/4 366/2/4
f 367/2/4 368/2/4 369/2/4
f 369/2/4 368/2/4 370/2/4
f 371/2/4 372/2/4 373/2/4
f 373/2/4 372/2/4 374/2/4
f 375/2/4 376/2/4 378/2/4
f 376/2/4 377/2/4 378/2/4
f 378/2/4 377/2/4 379/2/4
f 380/2/4 381/2/4 382/2/4
f 382/2/4 381/2/4 383/2/4
f 383/2/4 381/2/4 384/2/4
f 384/2/4 381/2/4 385/2/4
f 383/2/4 384/2/4 386/2/4
f 383/2/4 386/2/4 388/2/4
f 386/2/4 387/2/4 388/2/4
f 388/2/4 387/2/4 389/2/4
f 390/2/4 391/2/4 392/2/4
f 392/2/4 391/2/4 393/2/4
f 394/2/4 395/2/4 396/2/4
f 396/2/4 395/2/4 397/2/4
f 394/2/4 396/2/4 398/2/4
f 398/2/4 396/2/4 399/2/4
f 400/1/4 401/1/4 402/1/4
f 402/1/4 401/1/4 403/1/4
f 407/2/5 405/2/5 404/2/5
f 409/2/5 407/2/5 406/2/5
f 410/2/5 405/2/5 407/2/5
f 410/2/5 407/2/5 409/2/5
f 412/2/5 409/2/5 408/2/5
f 412/2/5 411/2/5 410/2/5
f 412/2/5 410/2/5 409/2/5
f 413/2/5 411/2/5 412/2/5
f 414/2/5 412/2/5 408/2/5
f 415/2/5 412/2/5 414/2/5
f 416/2/5 412/2/5 415/2/5
f 417/2/5 412/2/5 416/2/5
f 418/2/5 416/2/5 415/2/5
f 419/2/5 416/2/5 418/2/5
f 422/2/5 421/2/5 420/2/5
f 423/2/5 421/2/5 422/2/5
f 426/2/5 425/2/5 424/2/5
f 427/2/5 425/2/5 426/2/5
f 432/2/5 431/2/5 430/2/5
f 433/2/5 431/2/5 432/2/5
f 434/2/5 429/2/5 428/2/5
f 435/2/5 429/2/5 434/2/5
f 438/2/5 437/2/5 436/2/5
f 439/2/5 437/2/5 438/2/5
f 442/2/5 441/2/5 440/2/5
f 443/2/5 441/2/5 442/2/5
f 448/1/5 445/1/5 444/1/5
f 449/1/5 445/1/5 448/1/5
f 450/1/5 445/1/5 449/1/5
f 451/1/5 445/1/5 450/1/5
f 452/1/5 445/1/5 451/1/5
f 453/2/5 447/2/5 446/2/5
f 454/2/5 447/2/5 453/2/5
f 457/2/5 456/2/5 455/2/5
f 458/2/5 456/2/5 457/2/5
f 461/1/5 460/1/5 459/1/5
f 462/1/5 460/1/5 461/1/5
f 467/1/5 464/1/5 463/1/5
f 468/1/5 466/1/5 465/1/5
f 469/1/5 467/1/5 463/1/5
f 469/1/5 468/1/5 467/1/5
f 470/1/5 466/1/5 468/1/5
f 470/1/5 468/1/5 469/1/5
f 473/2/5 472/2/5 471/2/5
f 475/2/5 473/2/5 471/2/5
f 475/2/5 474/2/5 473/2/5
f 476/2/5 474/2/5 475/2/5
f 479/1/5 478/1/5 477/1/5
f 480/1/5 478/1/5 479/1/5
f 483/1/5 482/1/5 481/1/5
f 484/1/5 482/1/5 483/1/5
f 485/1/5 482/1/5 484/1/5
f 486/1/5 482/1/5 485/1/5
f 489/2/5 488/2/5 487/2/5
f 490/2/5 488/2/5 489/2/5
f 491/2/6 492/2/6 495/2/6
f 495/2/6 492/2/6 496/2/6
f 493/2/6 494/2/6 497/2/6
f 497/2/6 494/2/6 498/2/6
f 499/2/6 500/2/6 501/2/6
f 501/2/6 500/2/6 502/2/6
f 503/2/6 504/2/6 505/2/6
f 505/2/6 504/2/6 506/2/6
f 507/2/6 508/2/6 509/2/6
f 507/2/6 509/2/6 510/2/6
f 510/2/6 509/2/6 511/2/6
f 512/2/6 513/2/6 514/2/6
f 514/2/6 513/2/6 515/2/6
f 516/2/6 517/2/6 518/2/6
f 518/2/6 517/2/6 519/2/6
f 519/2/6 517/2/6 520/2/6
f 520/2/6 517/2/6 521/2/6
f 522/2/6 523/2/6 524/2/6
f 524/2/6 523/2/6 525/2/6
f 526/2/6 527/2/6 530/2/6
f 530/2/6 527/2/6 531/2/6
f 528/2/6 529/2/6 533/2/6
f 531/2/6 532/2/6 533/2/6
f 530/2/6 531/2/6 533/2/6
f 529/2/6 530/2/6 533/2/6
f 533/2/6 532/2/6 534/2/6
f 528/2/6 533/2/6 535/2/6
f 535/2/6 533/2/6 536/2/6
f 536/2/6 533/2/6 537/2/6
f 537/2/6 533/2/6 538/2/6
f 539/2/6 540/2/6 541/2/6
f 541/2/6 540/2/6 542/2/6
f 542/2/6 540/2/6 543/2/6
f 543/2/6 540/2/6 544/2/6
f 545/2/6 546/2/6 547/2/6
f 547/2/6 546/2/6 548/2/6
f 549/2/6 550/2/6 553/2/6
f 553/2/6 550/2/6 554/2/6
f 551/2/6 552/2/6 555/2/6
f 555/2/6 552/2/6 556/2/6
f 556/2/6 552/2/6 559/2/6
f 559/2/6 552/2/6 560/2/6
f 557/2/6 558/2/6 561/2/6
f 561/2/6 558/2/6 562/2/6
f 563/2/6 564/2/6 565/2/6
f 565/2/6 564/2/6 566/2/6
f 566/2/6 564/2/6 567/2/6
f 567/2/6 564/2/6 568/2/6
f 569/1/6 570/1/6 573/1/6
f 573/1/6 570/1/6 574/1/6
f 571/2/6 572/2/6 575/2/6
f 575/2/6 572/2/6 576/2/6
f 569/1/6 573/1/6 577/1/6
f 574/1/6 570/1/6 578/1/6
f 569/1/6 577/1/6 579/1/6
f 577/1/6 578/1/6 579/1/6
f 578/1/6 570/1/6 580/1/6
f 579/1/6 578/1/6 580/1/6
f 581/1/6 582/1/6 585/1/6
f 585/1/6 582/1/6 586/1/6
f 583/2/6 584/2/6 587/2/6
f 587/2/6 584/2/6 588/2/6
f 581/1/6 585/1/6 589/1/6
f 585/2/6 586/2/6 589/2/6
f 586/1/6 582/1/6 590/1/6
f 589/2/6 586/2/6 590/2/6
f 581/1/6 589/1/6 591/1/6
f 589/1/6 590/1/6 591/1/6
f 590/1/6 582/1/6 592/1/6
f 591/1/6 590/1/6 592/1/6
f 593/2/6 594/2/6 595/2/6
f 595/2/6 594/2/6 596/2/6
f 597/2/6 598/2/6 599/2/6
f 599/2/6 598/2/6 600/2/6
f 601/2/6 602/2/6 603/2/6
f 603/2/6 602/2/6 604/2/6
f 605/2/6 606/2/6 607/2/6
f 607/2/6 606/2/6 608/2/6
